<mxfile host="app.diagrams.net" modified="2024-02-28T02:17:36.444Z" agent="Mozilla/5.0 (Windows NT 10.0; Win64; x64) AppleWebKit/537.36 (KHTML, like Gecko) Chrome/121.0.0.0 Safari/537.36" version="23.1.7" etag="55mN1lK-kY8Ssziu6XSq" type="github">
  <diagram name="Page-1" id="blXUiyF9oeqNDgxQx7eo">
    <mxGraphModel>
      <root>
        <mxCell id="0" />
        <mxCell id="1" parent="0" />
      </root>
    </mxGraphModel>
  </diagram>
</mxfile>
